<?xml version="1.0" encoding="windows-1252"?>
<!DOCTYPE svg PUBLIC "-//W3C//DTD SVG 1.1//EN" "http://www.w3.org/Graphics/SVG/1.1/DTD/svg11.dtd">
<svg version="1.1" xmlns="http://www.w3.org/2000/svg" xmlns:xlink="http://www.w3.org/1999/xlink" x="0px" y="0px" viewBox="0 0 48 48" enable-background="new 0 0 48 48" xml:space="preserve"><g id="Grid" display="none"> <g display="inline">  <line fill="none" stroke="#BABABA" stroke-width="0.25" x1="-115.89" y1="15.531" x2="686" y2="15.531"/>  <line fill="none" stroke="#BABABA" stroke-width="0.25" x1="-115.89" y1="31.62" x2="686" y2="31.62"/>  <line fill="none" stroke="#BABABA" stroke-width="0.25" x1="-115.89" y1="47.708" x2="686" y2="47.708"/>  <line fill="none" stroke="#FF4FFF" stroke-width="0.25" x1="0.094" y1="-81" x2="0.094" y2="514.276"/>  <line fill="none" stroke="#FF4FFF" stroke-width="0.25" x1="48.087" y1="-81" x2="48.087" y2="514.276"/> </g></g><g id="Harmaat_taustat"> <rect fill="#F5F5F5" width="48" height="48"/></g><g id="Ei_mitään" display="none"/><g id="Layer_5" display="none"/><g id="Ikonit"> <path fill="#149ECB" d="M43,39.43c0,1.972-1.598,3.57-3.57,3.57H8.57C6.598,43,5,41.402,5,39.43V8.57C5,6.598,6.598,5,8.57,5h30.86  C41.402,5,43,6.598,43,8.57V39.43z"/> <path fill="none" stroke="#FFFFFF" stroke-width="2" stroke-miterlimit="10" d="M25.5,26.051h-9c-2.485,0-4.5,2.003-4.5,4.474  S14.015,35,16.5,35s4.5-2.003,4.5-4.474V21.95v2.1v-8.576C21,13.003,18.985,11,16.5,11S12,13.003,12,15.474s2.015,4.474,4.5,4.474  h9h-3h9c2.485,0,4.5-2.003,4.5-4.474S33.985,11,31.5,11S27,13.003,27,15.474v8.576v-2.1v8.576C27,32.997,29.015,35,31.5,35  s4.5-2.003,4.5-4.474s-2.015-4.474-4.5-4.474h-9"/></g></svg>