<?xml version="1.0" encoding="windows-1252"?>
<!DOCTYPE svg PUBLIC "-//W3C//DTD SVG 1.1//EN" "http://www.w3.org/Graphics/SVG/1.1/DTD/svg11.dtd">
<svg version="1.1" xmlns="http://www.w3.org/2000/svg" xmlns:xlink="http://www.w3.org/1999/xlink" x="0px" y="0px" viewBox="0 0 48 48" enable-background="new 0 0 48 48" xml:space="preserve"><g id="Grid" display="none"> <g display="inline">  <line fill="none" stroke="#BABABA" stroke-width="0.25" x1="-231.89" y1="15.531" x2="570" y2="15.531"/>  <line fill="none" stroke="#BABABA" stroke-width="0.25" x1="-231.89" y1="31.62" x2="570" y2="31.62"/>  <line fill="none" stroke="#BABABA" stroke-width="0.25" x1="-231.89" y1="47.708" x2="570" y2="47.708"/>  <line fill="none" stroke="#FF4FFF" stroke-width="0.25" x1="0.079" y1="-81" x2="0.079" y2="514.276"/>  <line fill="none" stroke="#FF4FFF" stroke-width="0.25" x1="48.071" y1="-81" x2="48.071" y2="514.276"/> </g></g><g id="Harmaat_taustat"> <rect fill="#F5F5F5" width="48" height="48"/></g><g id="Ei_mitään" display="none"/><g id="Layer_5" display="none"/><g id="Ikonit"> <path fill="#FFFFFF" stroke="#0F7395" stroke-width="2" stroke-miterlimit="10" d="M43,34c0,1.657-1.343,3-3,3H8  c-1.657,0-3-1.343-3-3V8c0-1.657,1.343-3,3-3h32c1.657,0,3,1.343,3,3V34z"/> <rect x="15" y="25" fill="#0F7395" width="4" height="9"/> <rect x="22" y="21" fill="#0F7395" width="4" height="13"/> <rect x="29" y="16" fill="#0F7395" width="4" height="18"/> <rect x="36" y="8" fill="#0F7395" width="4" height="26"/> <rect x="8" y="28" fill="#0F7395" width="4" height="6"/> <polygon opacity="0.3" fill="#FFFFFF" points="26,26.5 22,27.5 22,21 26,21  "/> <polygon opacity="0.3" fill="#FFFFFF" points="33,24.2 29,25.5 29,16 33,16  "/> <polygon opacity="0.3" fill="#FFFFFF" points="40,21 36,22.6 36,8 40,8  "/> <rect x="15" y="25" opacity="0.3" fill="#FFFFFF" width="4" height="5"/> <rect x="8" y="28" opacity="0.3" fill="#FFFFFF" width="4" height="3"/>   <polyline fill="none" stroke="#E0B400" stroke-width="1.8875" stroke-linecap="round" stroke-linejoin="round" stroke-miterlimit="10" points="  8,31 17.055,30 24.031,27 31.156,25 40.062,21  "/> <line fill="none" stroke="#0F7395" stroke-width="2" stroke-miterlimit="10" x1="24" y1="38" x2="24" y2="42"/>   <line fill="none" stroke="#0F7395" stroke-width="2" stroke-linecap="round" stroke-linejoin="round" stroke-miterlimit="10" x1="35" y1="42" x2="13" y2="42"/></g></svg>