<?xml version="1.0" encoding="windows-1252"?>
<!DOCTYPE svg PUBLIC "-//W3C//DTD SVG 1.1//EN" "http://www.w3.org/Graphics/SVG/1.1/DTD/svg11.dtd">
<svg version="1.1" xmlns="http://www.w3.org/2000/svg" xmlns:xlink="http://www.w3.org/1999/xlink" x="0px" y="0px" viewBox="0 0 48 48" enable-background="new 0 0 48 48" xml:space="preserve"><g id="Grid" display="none"> <g display="inline">  <line fill="none" stroke="#BABABA" stroke-width="0.25" x1="-57.89" y1="15.531" x2="744" y2="15.531"/>  <line fill="none" stroke="#BABABA" stroke-width="0.25" x1="-57.89" y1="31.62" x2="744" y2="31.62"/>  <line fill="none" stroke="#BABABA" stroke-width="0.25" x1="-57.89" y1="47.708" x2="744" y2="47.708"/>  <line fill="none" stroke="#FF4FFF" stroke-width="0.25" x1="0.102" y1="-81" x2="0.102" y2="514.276"/>  <line fill="none" stroke="#FF4FFF" stroke-width="0.25" x1="48.094" y1="-81" x2="48.094" y2="514.276"/> </g></g><g id="Harmaat_taustat"> <rect fill="#F5F5F5" width="48" height="48"/></g><g id="Ei_mitään" display="none"/><g id="Layer_5" display="none"/><g id="Ikonit"> <path fill="#0F7395" stroke="#0F7395" stroke-width="3" stroke-miterlimit="10" d="M43.5,33.5c0,1.657-1.343,3-3,3h-22  c-1.657,0-3-1.343-3-3v-16c0-1.657,1.343-3,3-3h22c1.657,0,3,1.343,3,3V33.5z"/> <polygon fill="#0F7395" points="34,38 38,44.51 38,38  "/> <path opacity="0.3" d="M14,13h21.031v9.602c0,4.044-1.677,6.398-6.677,6.398H14V13z"/> <path fill="none" stroke="#58C9EE" stroke-miterlimit="10" d="M33,27.5"/> <path fill="none" stroke="#58C9EE" stroke-miterlimit="10" d="M14,27.5"/> <polygon fill="#149ECB" points="13,28 9,34.562 9,28  "/> <path fill="#149ECB" stroke="#149ECB" stroke-width="3" stroke-miterlimit="10" d="M32.5,23.5c0,1.657-1.343,3-3,3h-22  c-1.657,0-3-1.343-3-3v-16c0-1.657,1.343-3,3-3h22c1.657,0,3,1.343,3,3V23.5z"/></g></svg>