<?xml version="1.0" encoding="windows-1252"?>
<!DOCTYPE svg PUBLIC "-//W3C//DTD SVG 1.1//EN" "http://www.w3.org/Graphics/SVG/1.1/DTD/svg11.dtd">
<svg version="1.1" xmlns="http://www.w3.org/2000/svg" xmlns:xlink="http://www.w3.org/1999/xlink" x="0px" y="0px" viewBox="0 0 48 48" enable-background="new 0 0 48 48" xml:space="preserve"><g id="Grid" display="none"> <g display="inline">  <line fill="none" stroke="#BABABA" stroke-width="0.25" x1="-173.89" y1="15.531" x2="628" y2="15.531"/>  <line fill="none" stroke="#BABABA" stroke-width="0.25" x1="-173.89" y1="31.62" x2="628" y2="31.62"/>  <line fill="none" stroke="#BABABA" stroke-width="0.25" x1="-173.89" y1="47.708" x2="628" y2="47.708"/>  <line fill="none" stroke="#FF4FFF" stroke-width="0.25" x1="0.087" y1="-81" x2="0.087" y2="514.276"/>  <line fill="none" stroke="#FF4FFF" stroke-width="0.25" x1="48.079" y1="-81" x2="48.079" y2="514.276"/> </g></g><g id="Harmaat_taustat"> <rect fill="#F5F5F5" width="48" height="48"/></g><g id="Ei_mitään" display="none"/><g id="Layer_5" display="none"/><g id="Ikonit"> <path fill="#0B566F" d="M10.561,41C9.699,41,9,40.337,9,39.52v-0.04C9,38.663,9.699,38,10.561,38H38c1.657,0,3-1.343,3-3V8.677  C41,6.646,39.657,5,38,5H10C8.343,5,7,6.646,7,8.677v30.645C7,41.354,8.343,43,10,43h28c1.161,0,2.157-0.817,2.655-2H10.561z"/> <g>  <path fill="#FFCE06" d="M27.462,13.797c0,0.48-0.42,0.72-0.74,0.72c-0.58,0-0.78-0.28-1.141-0.8c-0.26-0.38-0.54-0.54-0.92-0.54   c-0.96-0.02-1.84,0.78-1.84,1.8c0,1.74,1.26,2.3,3.141,3.48c1.54,0.98,2.3,2.121,2.28,3.321c0.02,1.661-0.96,2.4-1.7,2.761   c0.42,0.5,0.62,1.14,0.62,1.96c0,0.9-0.341,1.68-0.94,2.3c-0.7,0.68-1.7,0.9-2.521,0.9c-1.301,0-2.4-0.44-2.4-1.14   c0-0.46,0.34-0.8,0.76-0.8c0.44,0,0.761,0.22,1.04,0.62c0.24,0.34,0.62,0.6,1.04,0.6c0.66,0,1.761-0.24,1.761-1.84   c0-2.041-1.84-2.641-3.561-4.041c-1.24-0.98-1.761-2.061-1.761-3.181c0-1.561,0.86-2.32,1.501-2.721   c-0.221-0.42-0.341-1.06-0.341-1.76c0-0.7,0.341-1.36,0.761-1.84c0.8-0.88,1.68-1.06,2.92-1.06   C26.582,12.536,27.462,13.097,27.462,13.797z M22.4,17.737c-0.439,0.28-0.72,0.82-0.72,1.641c0,0.78,0.32,1.44,1.18,2.161   c1.701,1.4,2.941,2.08,3.261,2.5c0.48-0.2,0.961-0.96,0.961-1.541c0-0.5-0.04-1.4-1.4-2.36   C23.641,18.738,22.821,18.318,22.4,17.737z"/> </g></g></svg>