<?xml version="1.0" encoding="windows-1252"?>
<!DOCTYPE svg PUBLIC "-//W3C//DTD SVG 1.1//EN" "http://www.w3.org/Graphics/SVG/1.1/DTD/svg11.dtd">
<svg version="1.1" xmlns="http://www.w3.org/2000/svg" xmlns:xlink="http://www.w3.org/1999/xlink" x="0px" y="0px" viewBox="0 0 48 48" enable-background="new 0 0 48 48" xml:space="preserve"><g id="Grid" display="none"> <g display="inline">  <line fill="none" stroke="#BABABA" stroke-width="0.25" x1="-289.89" y1="15.531" x2="512" y2="15.531"/>  <line fill="none" stroke="#BABABA" stroke-width="0.25" x1="-289.89" y1="31.62" x2="512" y2="31.62"/>  <line fill="none" stroke="#BABABA" stroke-width="0.25" x1="-289.89" y1="47.708" x2="512" y2="47.708"/>  <line fill="none" stroke="#FF4FFF" stroke-width="0.25" x1="0.071" y1="-81" x2="0.071" y2="514.276"/>  <line fill="none" stroke="#FF4FFF" stroke-width="0.25" x1="48.063" y1="-81" x2="48.063" y2="514.276"/> </g></g><g id="Harmaat_taustat"> <rect fill="#F5F5F5" width="48" height="48"/></g><g id="Ei_mitään" display="none"/><g id="Layer_5" display="none"/><g id="Ikonit"> <path fill="#06526B" d="M15.427,43h-2.853C12.257,43,12,42.867,12,42.312V34h4v8.292C16,42.846,15.743,43,15.427,43z"/> <path fill="#06526B" d="M35.429,43h-2.859C32.255,43,32,42.822,32,42.271V34h4v8.292C36,42.843,35.744,43,35.429,43z"/> <path fill="#149ECB" d="M40,34c0,1.657-1.343,3-3,3H11c-1.657,0-3-1.343-3-3V8c0-1.657,1.343-3,3-3h26c1.657,0,3,1.343,3,3V34z"/> <circle fill="#E0B400" cx="14" cy="31.501" r="3"/> <circle fill="#E0B400" cx="34" cy="31.501" r="3"/> <path fill="#C7EDF9" d="M36,26H12c-1.105,0-2-0.895-2-2V13c0-1.105,0.895-2,2-2h24c1.105,0,2,0.895,2,2v11  C38,25.105,37.105,26,36,26z"/>   <line opacity="0.57" fill="none" stroke="#ECF9FD" stroke-width="3" stroke-linecap="round" stroke-miterlimit="10" x1="14.5" y1="14" x2="14.5" y2="23"/> <path fill="#1181A7" d="M36.52,10H11.48C10.663,10,10,9.337,10,8.52V8.48C10,7.663,10.663,7,11.48,7h25.04  C37.337,7,38,7.663,38,8.48v0.04C38,9.337,37.337,10,36.52,10z"/></g></svg>