<?xml version="1.0" encoding="windows-1252"?>
<!DOCTYPE svg PUBLIC "-//W3C//DTD SVG 1.1//EN" "http://www.w3.org/Graphics/SVG/1.1/DTD/svg11.dtd">
<svg version="1.1" xmlns="http://www.w3.org/2000/svg" xmlns:xlink="http://www.w3.org/1999/xlink" x="0px" y="0px" viewBox="0 0 48 48" enable-background="new 0 0 48 48" xml:space="preserve"><g id="Grid" display="none"> <g display="inline">  <line fill="none" stroke="#BABABA" stroke-width="0.25" x1="-463.89" y1="15.531" x2="338" y2="15.531"/>  <line fill="none" stroke="#BABABA" stroke-width="0.25" x1="-463.89" y1="31.62" x2="338" y2="31.62"/>  <line fill="none" stroke="#BABABA" stroke-width="0.25" x1="-463.89" y1="47.708" x2="338" y2="47.708"/>  <line fill="none" stroke="#FF4FFF" stroke-width="0.25" x1="0.047" y1="-81" x2="0.047" y2="514.276"/>  <line fill="none" stroke="#FF4FFF" stroke-width="0.25" x1="48.039" y1="-81" x2="48.039" y2="514.276"/> </g></g><g id="Harmaat_taustat"> <rect fill="#F5F5F5" width="48" height="48"/></g><g id="Ei_mitään" display="none"/><g id="Layer_5" display="none"/><g id="Ikonit"> <path fill="#0B566F" d="M15.155,45c-2.14,0-1.732-33.143-1.598-41.301c0.012-0.713,0.856-0.939,1.383-0.459  c1.775,1.618,4.118,4.518,4.118,7.057c0,4.139-2.222,8.888-2.222,11.521C16.836,25.073,17.265,45,15.155,45z"/> <g>  <path fill="#0B566F" d="M7.484,45c-1.068,0-2-13.632-2-25c0-2.416-1.464-5.316-1.464-11c0-2.274,0.319-3.837,0.464-6h2h4.078   C10.833,5.292,11,7.041,11,9.042C11,14.726,9.484,17.347,9.484,20C9.484,31.368,8.417,45,7.484,45z"/>  <rect x="5" y="3" fill="#F5F5F5" width="1" height="9"/>  <rect x="9" y="3" fill="#F5F5F5" width="1" height="9"/>  <rect x="7" y="3" fill="#F5F5F5" width="1" height="10"/> </g> <g>  <path fill="#B5E8F7" d="M32.304,44.851c-7.013,0-12.718-5.705-12.718-12.717c0-7.013,5.705-12.718,12.718-12.718   s12.718,5.705,12.718,12.718C45.021,39.146,39.316,44.851,32.304,44.851z"/>  <path fill="#7DD5F2" d="M32.304,20.416c6.471,0,11.717,5.246,11.717,11.717s-5.246,11.717-11.717,11.717   s-11.717-5.246-11.717-11.717S25.833,20.416,32.304,20.416 M32.304,18.416c-7.564,0-13.717,6.154-13.717,13.717   s6.154,13.717,13.717,13.717s13.717-6.154,13.717-13.717S39.868,18.416,32.304,18.416L32.304,18.416z"/> </g> <path opacity="0.08" fill="#0E6681" d="M23.718,40.107c-2.337-2.429-3.628-6.07-2.953-9.969c1.103-6.377,7.167-10.651,13.544-9.548  c2.127,0.368,4.264,1.436,5.872,2.864"/> <g>  <path fill="#0B566F" d="M22.198,29.982c0,0-1.324-1.071,0.17-2.565c1.07-1.07,2.142-1.149,2.664-1.108   c0.227,0.018,0.445-0.066,0.606-0.227l1.186-1.186c0.046-0.061,0.087-0.116,0.133-0.178c0.316-0.586,2.394-3.413,3.704-4.723   c1.449-1.449,2.53-1.005,2.53-1.005L22.198,29.982z"/>  <path fill="#0B566F" d="M22.198,29.982c0,0,1.071,1.324,2.565-0.17c1.026-1.026,1.141-2.053,1.113-2.597   c-0.014-0.27,0.079-0.53,0.27-0.721l1.124-1.124c0.073-0.054,0.142-0.106,0.215-0.161c0.639-0.345,3.418-2.386,4.712-3.68   c1.449-1.449,0.994-2.541,0.994-2.541L22.198,29.982z"/> </g> <g>  <path fill="#332500" d="M31.956,38.833c-3.882,0-7.039-3.158-7.039-7.04s3.157-7.04,7.039-7.04s7.04,3.158,7.04,7.04   S35.838,38.833,31.956,38.833z"/>  <path fill="#FFFFFF" d="M31.956,25.254c3.612,0,6.54,2.928,6.54,6.54s-2.928,6.54-6.54,6.54s-6.54-2.928-6.54-6.54   S28.345,25.254,31.956,25.254 M31.956,24.254c-4.157,0-7.54,3.382-7.54,7.54s3.382,7.54,7.54,7.54s7.54-3.382,7.54-7.54   S36.114,24.254,31.956,24.254L31.956,24.254z"/> </g> <path opacity="0.29" fill="#523C00" d="M27.404,36.489c-1.457-1.416-2.236-3.488-1.916-5.651c0.528-3.573,3.853-6.041,7.426-5.513  c1.413,0.209,2.653,0.855,3.604,1.782"/> <line fill="none" stroke="#FFFFFF" stroke-width="2" stroke-miterlimit="10" x1="39" y1="32" x2="42" y2="32"/></g></svg>