<?xml version="1.0" encoding="windows-1252"?>
<!DOCTYPE svg PUBLIC "-//W3C//DTD SVG 1.1//EN" "http://www.w3.org/Graphics/SVG/1.1/DTD/svg11.dtd">
<svg version="1.1" xmlns="http://www.w3.org/2000/svg" xmlns:xlink="http://www.w3.org/1999/xlink" x="0px" y="0px" viewBox="0 0 48 48" enable-background="new 0 0 48 48" xml:space="preserve"><g id="Grid" display="none"> <g display="inline">  <line fill="none" stroke="#BABABA" stroke-width="0.25" x1="-753.89" y1="15.531" x2="48" y2="15.531"/>  <line fill="none" stroke="#BABABA" stroke-width="0.25" x1="-753.89" y1="31.62" x2="48" y2="31.62"/>  <line fill="none" stroke="#BABABA" stroke-width="0.25" x1="-753.89" y1="47.708" x2="48" y2="47.708"/>  <line fill="none" stroke="#FF4FFF" stroke-width="0.25" x1="0.008" y1="-81" x2="0.008" y2="514.276"/>  <line fill="none" stroke="#FF4FFF" stroke-width="0.25" x1="48" y1="-81" x2="48" y2="514.276"/> </g></g><g id="Harmaat_taustat"> <rect fill="#F5F5F5" width="48" height="48"/></g><g id="Ei_mitään" display="none"/><g id="Layer_5" display="none"/><g id="Ikonit"> <g>  <g>   <path fill="#FFDE5C" d="M24.501,21.164c-0.409-0.603-1.001-1.65-1.001-2.664c0-1.018,0.591-2.063,0.999-2.664    c0.409,0.603,1.001,1.65,1.001,2.664C25.5,19.518,24.909,20.563,24.501,21.164z"/>   <path fill="#E0B400" d="M24.501,16.805C24.767,17.31,25,17.919,25,18.5c0,0.562-0.229,1.173-0.501,1.695    C24.233,19.69,24,19.081,24,18.5C24,17.938,24.229,17.327,24.501,16.805 M24.5,15c0,0-1.5,1.75-1.5,3.5s1.5,3.5,1.5,3.5    s1.5-1.75,1.5-3.5S24.5,15,24.5,15L24.5,15z"/>  </g>  <line fill="none" stroke="#E0B400" stroke-miterlimit="10" x1="29.5" y1="19" x2="29.5" y2="10"/>  <line fill="none" stroke="#E0B400" stroke-miterlimit="10" x1="19.5" y1="19" x2="19.5" y2="10"/>  <line fill="none" stroke="#E0B400" stroke-miterlimit="10" x1="21.5" y1="16" x2="21.5" y2="7"/>  <line fill="none" stroke="#E0B400" stroke-miterlimit="10" x1="27.5" y1="16" x2="27.5" y2="7"/>  <line fill="none" stroke="#E0B400" stroke-miterlimit="10" x1="23.5" y1="13" x2="23.5" y2="4"/>  <g>   <path fill="#FFDE5C" d="M25.533,25.467c0.072-0.73,0.304-2.032,1.038-2.767c0.734-0.734,2.037-0.965,2.767-1.038    c-0.072,0.729-0.304,2.032-1.038,2.766S26.263,25.394,25.533,25.467z"/>   <path fill="#E0B400" d="M28.75,22.25c-0.125,0.65-0.366,1.387-0.804,1.825c-0.438,0.438-1.175,0.679-1.825,0.804    c0.125-0.65,0.366-1.387,0.804-1.825C27.363,22.616,28.099,22.376,28.75,22.25 M29.871,21.129c0,0-2.435,0-3.653,1.218    C25,23.565,25,26,25,26s2.435,0,3.653-1.218C29.871,23.565,29.871,21.129,29.871,21.129L29.871,21.129z"/>  </g>  <g>   <path fill="#FFDE5C" d="M23.338,25.337c-0.729-0.073-2.032-0.304-2.767-1.038c-0.734-0.734-0.966-2.037-1.038-2.767    c0.729,0.073,2.032,0.304,2.767,1.038S23.266,24.608,23.338,25.337z"/>   <path fill="#E0B400" d="M20.121,22.121c0.651,0.125,1.387,0.366,1.825,0.804c0.438,0.438,0.679,1.175,0.804,1.825    c-0.65-0.125-1.387-0.366-1.825-0.804C20.487,23.508,20.246,22.772,20.121,22.121 M19,21c0,0,0,2.435,1.218,3.653    c1.218,1.218,3.653,1.218,3.653,1.218s0-2.435-1.218-3.653C21.435,21,19,21,19,21L19,21z"/>  </g>  <g>   <path fill="#FFDE5C" d="M25.533,31.467c0.072-0.73,0.304-2.032,1.038-2.767c0.734-0.734,2.037-0.965,2.767-1.038    c-0.072,0.729-0.304,2.032-1.038,2.766S26.263,31.394,25.533,31.467z"/>   <path fill="#E0B400" d="M28.75,28.25c-0.125,0.65-0.366,1.387-0.804,1.825c-0.438,0.438-1.175,0.679-1.825,0.804    c0.125-0.65,0.366-1.387,0.804-1.825C27.363,28.616,28.099,28.376,28.75,28.25 M29.871,27.129c0,0-2.435,0-3.653,1.218    C25,29.565,25,32,25,32s2.435,0,3.653-1.218C29.871,29.565,29.871,27.129,29.871,27.129L29.871,27.129z"/>  </g>  <g>   <path fill="#FFDE5C" d="M23.338,31.337c-0.729-0.073-2.032-0.304-2.767-1.038c-0.734-0.734-0.966-2.037-1.038-2.767    c0.729,0.073,2.032,0.304,2.767,1.038S23.266,30.608,23.338,31.337z"/>   <path fill="#E0B400" d="M20.121,28.121c0.651,0.125,1.387,0.366,1.825,0.804c0.438,0.438,0.679,1.175,0.804,1.825    c-0.65-0.125-1.387-0.366-1.825-0.804C20.487,29.508,20.246,28.772,20.121,28.121 M19,27c0,0,0,2.435,1.218,3.653    c1.218,1.218,3.653,1.218,3.653,1.218s0-2.435-1.218-3.653C21.435,27,19,27,19,27L19,27z"/>  </g>  <g>   <path fill="#FFDE5C" d="M25.533,37.467c0.072-0.73,0.304-2.032,1.038-2.767c0.734-0.734,2.037-0.965,2.767-1.038    c-0.072,0.729-0.304,2.032-1.038,2.766S26.263,37.394,25.533,37.467z"/>   <path fill="#E0B400" d="M28.75,34.25c-0.125,0.65-0.366,1.387-0.804,1.825c-0.438,0.438-1.175,0.679-1.825,0.804    c0.125-0.65,0.366-1.387,0.804-1.825C27.363,34.616,28.099,34.376,28.75,34.25 M29.871,33.129c0,0-2.435,0-3.653,1.218    C25,35.565,25,38,25,38s2.435,0,3.653-1.218C29.871,35.565,29.871,33.129,29.871,33.129L29.871,33.129z"/>  </g>  <g>   <path fill="#FFDE5C" d="M23.338,37.337c-0.729-0.073-2.032-0.304-2.767-1.038c-0.734-0.734-0.966-2.037-1.038-2.767    c0.729,0.073,2.032,0.304,2.767,1.038S23.266,36.608,23.338,37.337z"/>   <path fill="#E0B400" d="M20.121,34.121c0.651,0.125,1.387,0.366,1.825,0.804c0.438,0.438,0.679,1.175,0.804,1.825    c-0.65-0.125-1.387-0.366-1.825-0.804C20.487,35.508,20.246,34.772,20.121,34.121 M19,33c0,0,0,2.435,1.218,3.653    c1.218,1.218,3.653,1.218,3.653,1.218s0-2.435-1.218-3.653C21.435,33,19,33,19,33L19,33z"/>  </g>  <g>   <path fill="#FFDE5C" d="M25.533,43.467c0.072-0.73,0.304-2.032,1.038-2.767c0.734-0.734,2.037-0.965,2.767-1.038    c-0.072,0.729-0.304,2.032-1.038,2.766S26.263,43.394,25.533,43.467z"/>   <path fill="#E0B400" d="M28.75,40.25c-0.125,0.65-0.366,1.387-0.804,1.825c-0.438,0.438-1.175,0.679-1.825,0.804    c0.125-0.65,0.366-1.387,0.804-1.825C27.363,40.616,28.099,40.376,28.75,40.25 M29.871,39.129c0,0-2.435,0-3.653,1.218    C25,41.565,25,44,25,44s2.435,0,3.653-1.218C29.871,41.565,29.871,39.129,29.871,39.129L29.871,39.129z"/>  </g>  <g>   <path fill="#FFDE5C" d="M23.338,43.467c-0.729-0.073-2.032-0.304-2.767-1.038s-0.966-2.037-1.038-2.766    c0.729,0.073,2.032,0.304,2.767,1.038C23.034,41.435,23.266,42.737,23.338,43.467z"/>   <path fill="#E0B400" d="M20.121,40.25c0.651,0.125,1.387,0.366,1.825,0.804c0.438,0.438,0.679,1.175,0.804,1.825    c-0.65-0.125-1.387-0.366-1.825-0.804C20.487,41.637,20.246,40.901,20.121,40.25 M19,39.129c0,0,0,2.435,1.218,3.653    C21.435,44,23.871,44,23.871,44s0-2.435-1.218-3.653C21.435,39.129,19,39.129,19,39.129L19,39.129z"/>  </g>  <line fill="none" stroke="#E0B400" stroke-miterlimit="10" x1="25.5" y1="13" x2="25.5" y2="4"/> </g> <g>  <g>   <path fill="#FFDE5C" d="M9.501,21.164C9.092,20.562,8.5,19.514,8.5,18.5c0-1.018,0.591-2.063,0.999-2.664    c0.409,0.603,1.001,1.65,1.001,2.664C10.5,19.518,9.909,20.563,9.501,21.164z"/>   <path fill="#E0B400" d="M9.501,16.805C9.767,17.31,10,17.919,10,18.5c0,0.562-0.229,1.173-0.501,1.695    C9.233,19.69,9,19.081,9,18.5C9,17.938,9.229,17.327,9.501,16.805 M9.5,15c0,0-1.5,1.75-1.5,3.5S9.5,22,9.5,22s1.5-1.75,1.5-3.5    S9.5,15,9.5,15L9.5,15z"/>  </g>  <line fill="none" stroke="#E0B400" stroke-miterlimit="10" x1="14.5" y1="19" x2="14.5" y2="10"/>  <line fill="none" stroke="#E0B400" stroke-miterlimit="10" x1="4.5" y1="19" x2="4.5" y2="10"/>  <line fill="none" stroke="#E0B400" stroke-miterlimit="10" x1="6.5" y1="16" x2="6.5" y2="7"/>  <line fill="none" stroke="#E0B400" stroke-miterlimit="10" x1="12.5" y1="16" x2="12.5" y2="7"/>  <line fill="none" stroke="#E0B400" stroke-miterlimit="10" x1="8.5" y1="13" x2="8.5" y2="4"/>  <g>   <path fill="#FFDE5C" d="M10.533,25.467c0.072-0.73,0.304-2.032,1.038-2.767c0.734-0.734,2.037-0.965,2.767-1.038    c-0.072,0.729-0.304,2.032-1.038,2.766S11.263,25.394,10.533,25.467z"/>   <path fill="#E0B400" d="M13.75,22.25c-0.125,0.65-0.366,1.387-0.804,1.825c-0.438,0.438-1.175,0.679-1.825,0.804    c0.125-0.65,0.366-1.387,0.804-1.825C12.363,22.616,13.099,22.376,13.75,22.25 M14.871,21.129c0,0-2.435,0-3.653,1.218    C10,23.565,10,26,10,26s2.435,0,3.653-1.218C14.871,23.565,14.871,21.129,14.871,21.129L14.871,21.129z"/>  </g>  <g>   <path fill="#FFDE5C" d="M8.338,25.337c-0.729-0.073-2.032-0.304-2.767-1.038c-0.734-0.734-0.966-2.037-1.038-2.767    c0.729,0.073,2.032,0.304,2.767,1.038S8.266,24.608,8.338,25.337z"/>   <path fill="#E0B400" d="M5.121,22.121c0.651,0.125,1.387,0.366,1.825,0.804C7.384,23.363,7.625,24.1,7.75,24.75    c-0.65-0.125-1.387-0.366-1.825-0.804C5.487,23.508,5.246,22.772,5.121,22.121 M4,21c0,0,0,2.435,1.218,3.653    c1.218,1.218,3.653,1.218,3.653,1.218s0-2.435-1.218-3.653C6.435,21,4,21,4,21L4,21z"/>  </g>  <g>   <path fill="#FFDE5C" d="M10.533,31.467c0.072-0.73,0.304-2.032,1.038-2.767c0.734-0.734,2.037-0.965,2.767-1.038    c-0.072,0.729-0.304,2.032-1.038,2.766S11.263,31.394,10.533,31.467z"/>   <path fill="#E0B400" d="M13.75,28.25c-0.125,0.65-0.366,1.387-0.804,1.825c-0.438,0.438-1.175,0.679-1.825,0.804    c0.125-0.65,0.366-1.387,0.804-1.825C12.363,28.616,13.099,28.376,13.75,28.25 M14.871,27.129c0,0-2.435,0-3.653,1.218    C10,29.565,10,32,10,32s2.435,0,3.653-1.218C14.871,29.565,14.871,27.129,14.871,27.129L14.871,27.129z"/>  </g>  <g>   <path fill="#FFDE5C" d="M8.338,31.337c-0.729-0.073-2.032-0.304-2.767-1.038c-0.734-0.734-0.966-2.037-1.038-2.767    c0.729,0.073,2.032,0.304,2.767,1.038S8.266,30.608,8.338,31.337z"/>   <path fill="#E0B400" d="M5.121,28.121c0.651,0.125,1.387,0.366,1.825,0.804C7.384,29.363,7.625,30.1,7.75,30.75    c-0.65-0.125-1.387-0.366-1.825-0.804C5.487,29.508,5.246,28.772,5.121,28.121 M4,27c0,0,0,2.435,1.218,3.653    c1.218,1.218,3.653,1.218,3.653,1.218s0-2.435-1.218-3.653C6.435,27,4,27,4,27L4,27z"/>  </g>  <g>   <path fill="#FFDE5C" d="M10.533,37.467c0.072-0.73,0.304-2.032,1.038-2.767c0.734-0.734,2.037-0.965,2.767-1.038    c-0.072,0.729-0.304,2.032-1.038,2.766S11.263,37.394,10.533,37.467z"/>   <path fill="#E0B400" d="M13.75,34.25c-0.125,0.65-0.366,1.387-0.804,1.825c-0.438,0.438-1.175,0.679-1.825,0.804    c0.125-0.65,0.366-1.387,0.804-1.825C12.363,34.616,13.099,34.376,13.75,34.25 M14.871,33.129c0,0-2.435,0-3.653,1.218    C10,35.565,10,38,10,38s2.435,0,3.653-1.218C14.871,35.565,14.871,33.129,14.871,33.129L14.871,33.129z"/>  </g>  <g>   <path fill="#FFDE5C" d="M8.338,37.337c-0.729-0.073-2.032-0.304-2.767-1.038c-0.734-0.734-0.966-2.037-1.038-2.767    c0.729,0.073,2.032,0.304,2.767,1.038S8.266,36.608,8.338,37.337z"/>   <path fill="#E0B400" d="M5.121,34.121c0.651,0.125,1.387,0.366,1.825,0.804C7.384,35.363,7.625,36.1,7.75,36.75    c-0.65-0.125-1.387-0.366-1.825-0.804C5.487,35.508,5.246,34.772,5.121,34.121 M4,33c0,0,0,2.435,1.218,3.653    c1.218,1.218,3.653,1.218,3.653,1.218s0-2.435-1.218-3.653C6.435,33,4,33,4,33L4,33z"/>  </g>  <g>   <path fill="#FFDE5C" d="M10.533,43.467c0.072-0.73,0.304-2.032,1.038-2.767c0.734-0.734,2.037-0.965,2.767-1.038    c-0.072,0.729-0.304,2.032-1.038,2.766S11.263,43.394,10.533,43.467z"/>   <path fill="#E0B400" d="M13.75,40.25c-0.125,0.65-0.366,1.387-0.804,1.825c-0.438,0.438-1.175,0.679-1.825,0.804    c0.125-0.65,0.366-1.387,0.804-1.825C12.363,40.616,13.099,40.376,13.75,40.25 M14.871,39.129c0,0-2.435,0-3.653,1.218    C10,41.565,10,44,10,44s2.435,0,3.653-1.218C14.871,41.565,14.871,39.129,14.871,39.129L14.871,39.129z"/>  </g>  <g>   <path fill="#FFDE5C" d="M8.338,43.467c-0.729-0.073-2.032-0.304-2.767-1.038s-0.966-2.037-1.038-2.766    C5.263,39.735,6.565,39.966,7.3,40.7C8.034,41.435,8.266,42.737,8.338,43.467z"/>   <path fill="#E0B400" d="M5.121,40.25c0.651,0.125,1.387,0.366,1.825,0.804c0.438,0.438,0.679,1.175,0.804,1.825    c-0.65-0.125-1.387-0.366-1.825-0.804C5.487,41.637,5.246,40.901,5.121,40.25 M4,39.129c0,0,0,2.435,1.218,3.653    C6.435,44,8.871,44,8.871,44s0-2.435-1.218-3.653C6.435,39.129,4,39.129,4,39.129L4,39.129z"/>  </g>  <line fill="none" stroke="#E0B400" stroke-miterlimit="10" x1="10.5" y1="13" x2="10.5" y2="4"/> </g> <g>  <g>   <path fill="#FFDE5C" d="M39.501,21.164c-0.409-0.603-1.001-1.65-1.001-2.664c0-1.018,0.591-2.063,0.999-2.664    c0.409,0.603,1.001,1.65,1.001,2.664C40.5,19.518,39.909,20.563,39.501,21.164z"/>   <path fill="#E0B400" d="M39.501,16.805C39.767,17.31,40,17.919,40,18.5c0,0.562-0.229,1.173-0.501,1.695    C39.233,19.69,39,19.081,39,18.5C39,17.938,39.229,17.327,39.501,16.805 M39.5,15c0,0-1.5,1.75-1.5,3.5s1.5,3.5,1.5,3.5    s1.5-1.75,1.5-3.5S39.5,15,39.5,15L39.5,15z"/>  </g>  <line fill="none" stroke="#E0B400" stroke-miterlimit="10" x1="44.5" y1="19" x2="44.5" y2="10"/>  <line fill="none" stroke="#E0B400" stroke-miterlimit="10" x1="34.5" y1="19" x2="34.5" y2="10"/>  <line fill="none" stroke="#E0B400" stroke-miterlimit="10" x1="36.5" y1="16" x2="36.5" y2="7"/>  <line fill="none" stroke="#E0B400" stroke-miterlimit="10" x1="42.5" y1="16" x2="42.5" y2="7"/>  <line fill="none" stroke="#E0B400" stroke-miterlimit="10" x1="38.5" y1="13" x2="38.5" y2="4"/>  <g>   <path fill="#FFDE5C" d="M40.533,25.467c0.072-0.73,0.304-2.032,1.038-2.767c0.734-0.734,2.037-0.965,2.767-1.038    c-0.072,0.729-0.304,2.032-1.038,2.766S41.263,25.394,40.533,25.467z"/>   <path fill="#E0B400" d="M43.75,22.25c-0.125,0.65-0.366,1.387-0.804,1.825c-0.438,0.438-1.175,0.679-1.825,0.804    c0.125-0.65,0.366-1.387,0.804-1.825C42.363,22.616,43.099,22.376,43.75,22.25 M44.871,21.129c0,0-2.435,0-3.653,1.218    C40,23.565,40,26,40,26s2.435,0,3.653-1.218C44.871,23.565,44.871,21.129,44.871,21.129L44.871,21.129z"/>  </g>  <g>   <path fill="#FFDE5C" d="M38.338,25.337c-0.729-0.073-2.032-0.304-2.767-1.038c-0.734-0.734-0.966-2.037-1.038-2.767    c0.729,0.073,2.032,0.304,2.767,1.038S38.266,24.608,38.338,25.337z"/>   <path fill="#E0B400" d="M35.121,22.121c0.651,0.125,1.387,0.366,1.825,0.804c0.438,0.438,0.679,1.175,0.804,1.825    c-0.65-0.125-1.387-0.366-1.825-0.804C35.487,23.508,35.246,22.772,35.121,22.121 M34,21c0,0,0,2.435,1.218,3.653    c1.218,1.218,3.653,1.218,3.653,1.218s0-2.435-1.218-3.653C36.435,21,34,21,34,21L34,21z"/>  </g>  <g>   <path fill="#FFDE5C" d="M40.533,31.467c0.072-0.73,0.304-2.032,1.038-2.767c0.734-0.734,2.037-0.965,2.767-1.038    c-0.072,0.729-0.304,2.032-1.038,2.766S41.263,31.394,40.533,31.467z"/>   <path fill="#E0B400" d="M43.75,28.25c-0.125,0.65-0.366,1.387-0.804,1.825c-0.438,0.438-1.175,0.679-1.825,0.804    c0.125-0.65,0.366-1.387,0.804-1.825C42.363,28.616,43.099,28.376,43.75,28.25 M44.871,27.129c0,0-2.435,0-3.653,1.218    C40,29.565,40,32,40,32s2.435,0,3.653-1.218C44.871,29.565,44.871,27.129,44.871,27.129L44.871,27.129z"/>  </g>  <g>   <path fill="#FFDE5C" d="M38.338,31.337c-0.729-0.073-2.032-0.304-2.767-1.038c-0.734-0.734-0.966-2.037-1.038-2.767    c0.729,0.073,2.032,0.304,2.767,1.038S38.266,30.608,38.338,31.337z"/>   <path fill="#E0B400" d="M35.121,28.121c0.651,0.125,1.387,0.366,1.825,0.804c0.438,0.438,0.679,1.175,0.804,1.825    c-0.65-0.125-1.387-0.366-1.825-0.804C35.487,29.508,35.246,28.772,35.121,28.121 M34,27c0,0,0,2.435,1.218,3.653    c1.218,1.218,3.653,1.218,3.653,1.218s0-2.435-1.218-3.653C36.435,27,34,27,34,27L34,27z"/>  </g>  <g>   <path fill="#FFDE5C" d="M40.533,37.467c0.072-0.73,0.304-2.032,1.038-2.767c0.734-0.734,2.037-0.965,2.767-1.038    c-0.072,0.729-0.304,2.032-1.038,2.766S41.263,37.394,40.533,37.467z"/>   <path fill="#E0B400" d="M43.75,34.25c-0.125,0.65-0.366,1.387-0.804,1.825c-0.438,0.438-1.175,0.679-1.825,0.804    c0.125-0.65,0.366-1.387,0.804-1.825C42.363,34.616,43.099,34.376,43.75,34.25 M44.871,33.129c0,0-2.435,0-3.653,1.218    C40,35.565,40,38,40,38s2.435,0,3.653-1.218C44.871,35.565,44.871,33.129,44.871,33.129L44.871,33.129z"/>  </g>  <g>   <path fill="#FFDE5C" d="M38.338,37.337c-0.729-0.073-2.032-0.304-2.767-1.038c-0.734-0.734-0.966-2.037-1.038-2.767    c0.729,0.073,2.032,0.304,2.767,1.038S38.266,36.608,38.338,37.337z"/>   <path fill="#E0B400" d="M35.121,34.121c0.651,0.125,1.387,0.366,1.825,0.804c0.438,0.438,0.679,1.175,0.804,1.825    c-0.65-0.125-1.387-0.366-1.825-0.804C35.487,35.508,35.246,34.772,35.121,34.121 M34,33c0,0,0,2.435,1.218,3.653    c1.218,1.218,3.653,1.218,3.653,1.218s0-2.435-1.218-3.653C36.435,33,34,33,34,33L34,33z"/>  </g>  <g>   <path fill="#FFDE5C" d="M40.533,43.467c0.072-0.73,0.304-2.032,1.038-2.767c0.734-0.734,2.037-0.965,2.767-1.038    c-0.072,0.729-0.304,2.032-1.038,2.766S41.263,43.394,40.533,43.467z"/>   <path fill="#E0B400" d="M43.75,40.25c-0.125,0.65-0.366,1.387-0.804,1.825c-0.438,0.438-1.175,0.679-1.825,0.804    c0.125-0.65,0.366-1.387,0.804-1.825C42.363,40.616,43.099,40.376,43.75,40.25 M44.871,39.129c0,0-2.435,0-3.653,1.218    C40,41.565,40,44,40,44s2.435,0,3.653-1.218C44.871,41.565,44.871,39.129,44.871,39.129L44.871,39.129z"/>  </g>  <g>   <path fill="#FFDE5C" d="M38.338,43.467c-0.729-0.073-2.032-0.304-2.767-1.038s-0.966-2.037-1.038-2.766    c0.729,0.073,2.032,0.304,2.767,1.038C38.034,41.435,38.266,42.737,38.338,43.467z"/>   <path fill="#E0B400" d="M35.121,40.25c0.651,0.125,1.387,0.366,1.825,0.804c0.438,0.438,0.679,1.175,0.804,1.825    c-0.65-0.125-1.387-0.366-1.825-0.804C35.487,41.637,35.246,40.901,35.121,40.25 M34,39.129c0,0,0,2.435,1.218,3.653    C36.435,44,38.871,44,38.871,44s0-2.435-1.218-3.653C36.435,39.129,34,39.129,34,39.129L34,39.129z"/>  </g>  <line fill="none" stroke="#E0B400" stroke-miterlimit="10" x1="40.5" y1="13" x2="40.5" y2="4"/> </g></g></svg>