<?xml version="1.0" encoding="windows-1252"?>
<!DOCTYPE svg PUBLIC "-//W3C//DTD SVG 1.1//EN" "http://www.w3.org/Graphics/SVG/1.1/DTD/svg11.dtd">
<svg version="1.1" xmlns="http://www.w3.org/2000/svg" xmlns:xlink="http://www.w3.org/1999/xlink" x="0px" y="0px" viewBox="0 0 48 48" enable-background="new 0 0 48 48" xml:space="preserve"><g id="Grid" display="none"> <g display="inline">  <line fill="none" stroke="#BABABA" stroke-width="0.25" x1="-521.89" y1="15.531" x2="280" y2="15.531"/>  <line fill="none" stroke="#BABABA" stroke-width="0.25" x1="-521.89" y1="31.62" x2="280" y2="31.62"/>  <line fill="none" stroke="#BABABA" stroke-width="0.25" x1="-521.89" y1="47.708" x2="280" y2="47.708"/>  <line fill="none" stroke="#FF4FFF" stroke-width="0.25" x1="0.039" y1="-81" x2="0.039" y2="514.276"/>  <line fill="none" stroke="#FF4FFF" stroke-width="0.25" x1="48.032" y1="-81" x2="48.032" y2="514.276"/> </g></g><g id="Harmaat_taustat"> <rect fill="#F5F5F5" width="48" height="48"/></g><g id="Ei_mitään" display="none"/><g id="Layer_5" display="none"/><g id="Ikonit"> <g>  <path fill="#149ECB" d="M38.783,38.94c0,0,0.011-5.61-1.961-7.517c-0.709-0.686-1.584-0.913-2.433-0.902   c-1.512,0.019-4.254,2.865-4.114,4.406c0.068,0.746,0.348,1.5,0.997,2.128C33.262,38.98,38.783,38.94,38.783,38.94z"/>  <path fill="#149ECB" d="M33.325,29.171c0,0-3.939,0.238-4.354,4.567c0,0-23.542-25.508-22.215-26.9S33.325,29.171,33.325,29.171z"/>  <path fill="#FFCE06" d="M38.783,38.94c0,0,0.008-3.865-1.118-6.27c-0.115-0.246-2.048,0.628-3.415,1.934s-2.168,3.044-1.975,3.142   C34.683,38.97,38.783,38.94,38.783,38.94z"/> </g> <g>     <rect x="7.686" y="21.122" transform="matrix(0.7071 -0.7071 0.7071 0.7071 -8.998 22.5204)" fill="#149ECB" width="30" height="2"/>     <rect x="9.1" y="22.536" transform="matrix(0.7071 -0.7071 0.7071 0.7071 -9.5838 23.9346)" fill="#0D6582" width="30" height="2"/>     <rect x="10.514" y="23.95" transform="matrix(0.7071 -0.7071 0.7071 0.7071 -10.1696 25.3488)" fill="#0B566F" width="30" height="2"/>  <polygon fill="#FFFFFF" points="15.614,36.264 8.322,39.313 11.372,32.021   "/>     <rect x="34.413" y="9.222" transform="matrix(0.7071 -0.7071 0.7071 0.7071 1.7299 28.6209)" fill="#FFCE06" width="2" height="6"/>  <path fill="#E0B400" d="M36.121,7.273l-2.121,2.121l4.243,4.243l2.123-2.123c0.39-0.39,0.39-1.021,0-1.411l-2.83-2.83   C37.144,6.882,36.511,6.882,36.121,7.273z"/>  <polygon fill="#0B566F" points="11.598,37.905 8.389,39.247 9.731,36.037   "/> </g></g></svg>