<?xml version="1.0" encoding="windows-1252"?>
<!DOCTYPE svg PUBLIC "-//W3C//DTD SVG 1.1//EN" "http://www.w3.org/Graphics/SVG/1.1/DTD/svg11.dtd">
<svg version="1.1" xmlns="http://www.w3.org/2000/svg" xmlns:xlink="http://www.w3.org/1999/xlink" x="0px" y="0px" viewBox="0 0 48 48" enable-background="new 0 0 48 48" xml:space="preserve"><g id="Grid" display="none"> <g display="inline">  <line fill="none" stroke="#BABABA" stroke-width="0.25" x1="-579.89" y1="15.531" x2="222" y2="15.531"/>  <line fill="none" stroke="#BABABA" stroke-width="0.25" x1="-579.89" y1="31.62" x2="222" y2="31.62"/>  <line fill="none" stroke="#BABABA" stroke-width="0.25" x1="-579.89" y1="47.708" x2="222" y2="47.708"/>  <line fill="none" stroke="#FF4FFF" stroke-width="0.25" x1="0.032" y1="-81" x2="0.032" y2="514.276"/>  <line fill="none" stroke="#FF4FFF" stroke-width="0.25" x1="48.024" y1="-81" x2="48.024" y2="514.276"/> </g></g><g id="Harmaat_taustat"> <rect fill="#F5F5F5" width="48" height="48"/></g><g id="Ei_mitään" display="none"/><g id="Layer_5" display="none"/><g id="Ikonit"> <g>  <polygon fill="none" stroke="#FFCE06" stroke-width="6" stroke-miterlimit="10" points="42,9.441 42,42 9.448,42   "/>  <g>   <line fill="#0B566F" stroke="#E0B400" stroke-miterlimit="10" x1="36.5" y1="41" x2="36.5" y2="45"/>   <line fill="#0B566F" stroke="#E0B400" stroke-miterlimit="10" x1="39.5" y1="41" x2="39.5" y2="45"/>   <line fill="#0B566F" stroke="#E0B400" stroke-miterlimit="10" x1="33.5" y1="41" x2="33.5" y2="45"/>   <line fill="#0B566F" stroke="#E0B400" stroke-miterlimit="10" x1="30.5" y1="41" x2="30.5" y2="45"/>   <line fill="#0B566F" stroke="#E0B400" stroke-miterlimit="10" x1="27.5" y1="41" x2="27.5" y2="45"/>   <line fill="#0B566F" stroke="#E0B400" stroke-miterlimit="10" x1="24.5" y1="41" x2="24.5" y2="45"/>   <line fill="#0B566F" stroke="#E0B400" stroke-miterlimit="10" x1="21.5" y1="41" x2="21.5" y2="45"/>   <line fill="#0B566F" stroke="#E0B400" stroke-miterlimit="10" x1="18.5" y1="41" x2="18.5" y2="45"/>   <line fill="#0B566F" stroke="#E0B400" stroke-miterlimit="10" x1="15.5" y1="41" x2="15.5" y2="45"/>   <line fill="#0B566F" stroke="#E0B400" stroke-miterlimit="10" x1="12.5" y1="41" x2="12.5" y2="45"/>  </g>  <g>   <line fill="#0B566F" stroke="#E0B400" stroke-miterlimit="10" x1="45" y1="36.5" x2="41" y2="36.5"/>   <line fill="#0B566F" stroke="#E0B400" stroke-miterlimit="10" x1="45" y1="39.5" x2="41" y2="39.5"/>   <line fill="#0B566F" stroke="#E0B400" stroke-miterlimit="10" x1="45" y1="33.5" x2="41" y2="33.5"/>   <line fill="#0B566F" stroke="#E0B400" stroke-miterlimit="10" x1="45" y1="30.5" x2="41" y2="30.5"/>   <line fill="#0B566F" stroke="#E0B400" stroke-miterlimit="10" x1="45" y1="27.5" x2="41" y2="27.5"/>   <line fill="#0B566F" stroke="#E0B400" stroke-miterlimit="10" x1="45" y1="24.5" x2="41" y2="24.5"/>   <line fill="#0B566F" stroke="#E0B400" stroke-miterlimit="10" x1="45" y1="21.5" x2="41" y2="21.5"/>   <line fill="#0B566F" stroke="#E0B400" stroke-miterlimit="10" x1="45" y1="18.5" x2="41" y2="18.5"/>   <line fill="#0B566F" stroke="#E0B400" stroke-miterlimit="10" x1="45" y1="15.5" x2="41" y2="15.5"/>   <line fill="#0B566F" stroke="#E0B400" stroke-miterlimit="10" x1="45" y1="12.5" x2="41" y2="12.5"/>  </g> </g> <g>  <g>   <g>    <path fill="#149ECB" d="M31.19,21.721v-5.137l4.279,0.713c0.495,0.082,0.858,0.511,0.858,1.013v1.686     c0,0.502-0.363,0.93-0.858,1.013L31.19,21.721z"/>   </g>   <g>    <path fill="#149ECB" d="M26.71,28.885l3.302-3.935l2.82,3.297c0.326,0.381,0.329,0.943,0.006,1.327l-1.083,1.291     c-0.323,0.384-0.876,0.479-1.308,0.224L26.71,28.885z"/>   </g>   <g>    <path fill="#149ECB" d="M18.673,31.494l5.059-0.892l0.041,4.338c0.005,0.502-0.354,0.933-0.848,1.021l-1.66,0.293     c-0.494,0.087-0.979-0.196-1.146-0.669L18.673,31.494z"/>   </g>   <g>    <path fill="#149ECB" d="M10.839,28.325l4.449,2.569l-2.757,3.349c-0.319,0.387-0.871,0.487-1.306,0.237l-1.46-0.843     c-0.435-0.251-0.624-0.779-0.448-1.249L10.839,28.325z"/>   </g>   <g>    <path fill="#149ECB" d="M6.875,20.863l1.757,4.827l-4.265,0.793c-0.493,0.092-0.981-0.187-1.152-0.658l-0.577-1.584     c-0.172-0.472,0.023-0.998,0.46-1.245L6.875,20.863z"/>   </g>   <g>    <path fill="#149ECB" d="M8.635,12.598l-1.757,4.827l-3.777-2.134c-0.437-0.247-0.631-0.773-0.46-1.245l0.577-1.584     c0.172-0.472,0.659-0.75,1.152-0.658L8.635,12.598z"/>   </g>   <g>    <path fill="#149ECB" d="M15.296,7.399l-4.449,2.569L9.325,5.905c-0.176-0.47,0.013-0.998,0.448-1.249l1.46-0.843     c0.435-0.251,0.987-0.151,1.306,0.237L15.296,7.399z"/>   </g>   <g>    <path fill="#149ECB" d="M23.74,7.697l-5.059-0.892l1.446-4.091c0.167-0.473,0.652-0.756,1.146-0.669l1.66,0.293     c0.494,0.087,0.853,0.519,0.848,1.021L23.74,7.697z"/>   </g>   <g>    <path fill="#149ECB" d="M30.018,13.353l-3.302-3.935l3.737-2.204c0.432-0.255,0.985-0.16,1.308,0.224l1.083,1.291     c0.323,0.384,0.32,0.946-0.006,1.327L30.018,13.353z"/>   </g>   <g>    <path fill="#149ECB" d="M31.19,21.721v-5.137l4.279,0.713c0.495,0.082,0.858,0.511,0.858,1.013v1.686     c0,0.502-0.363,0.93-0.858,1.013L31.19,21.721z"/>   </g>  </g>  <path fill="#149ECB" d="M19.401,6.357c-7.065,0-12.792,5.727-12.792,12.792s5.727,12.792,12.792,12.792   c7.065,0,12.792-5.727,12.792-12.792S26.466,6.357,19.401,6.357z M19.452,28.145c-4.993,0-9.04-4.027-9.04-8.996   s4.047-8.996,9.04-8.996s9.04,4.027,9.04,8.996S24.444,28.145,19.452,28.145z"/> </g></g></svg>