<?xml version="1.0" encoding="windows-1252"?>
<!DOCTYPE svg PUBLIC "-//W3C//DTD SVG 1.1//EN" "http://www.w3.org/Graphics/SVG/1.1/DTD/svg11.dtd">
<svg version="1.1" xmlns="http://www.w3.org/2000/svg" xmlns:xlink="http://www.w3.org/1999/xlink" x="0px" y="0px" viewBox="0 0 48 48" enable-background="new 0 0 48 48" xml:space="preserve"><g id="Grid" display="none"> <g display="inline">  <line fill="none" stroke="#BABABA" stroke-width="0.25" x1="-637.89" y1="15.531" x2="164" y2="15.531"/>  <line fill="none" stroke="#BABABA" stroke-width="0.25" x1="-637.89" y1="31.62" x2="164" y2="31.62"/>  <line fill="none" stroke="#BABABA" stroke-width="0.25" x1="-637.89" y1="47.708" x2="164" y2="47.708"/>  <line fill="none" stroke="#FF4FFF" stroke-width="0.25" x1="0.024" y1="-81" x2="0.024" y2="514.276"/>  <line fill="none" stroke="#FF4FFF" stroke-width="0.25" x1="48.016" y1="-81" x2="48.016" y2="514.276"/> </g></g><g id="Harmaat_taustat"> <rect fill="#F5F5F5" width="48" height="48"/></g><g id="Ei_mitään" display="none"/><g id="Layer_5" display="none"/><g id="Ikonit"> <g>  <circle fill="#33BDEB" stroke="#06526B" stroke-miterlimit="10" cx="30.837" cy="24.917" r="3"/>  <path fill="none" stroke="#149ECB" stroke-width="3" stroke-linecap="round" stroke-miterlimit="10" d="M22.969,7.5   c0,0,1.391,16.591-8.067,16.591C5.276,24.091,6.833,7.5,6.833,7.5"/>  <path fill="none" stroke="#149ECB" stroke-width="2" stroke-linecap="round" stroke-miterlimit="10" d="M14.833,24.917   c0,0-1.667,16.591,7.959,16.591c9.458,0,7.958-16.591,7.958-16.591"/>  <circle fill="#06526B" cx="30.837" cy="24.917" r="1.719"/>     <line fill="none" stroke="#06526B" stroke-width="3" stroke-linecap="round" stroke-miterlimit="10" x1="6.865" y1="7.5" x2="10.865" y2="7.5"/>     <line fill="none" stroke="#06526B" stroke-width="3" stroke-linecap="round" stroke-miterlimit="10" x1="19.112" y1="7.5" x2="22.947" y2="7.5"/> </g> <polygon fill="#D01600" points="35,15 35,20 39,20 39,15 44,15 44,11 39,11 39,6 35,6 35,11 30,11 30,15  "/></g></svg>