<?xml version="1.0" encoding="windows-1252"?>
<!DOCTYPE svg PUBLIC "-//W3C//DTD SVG 1.1//EN" "http://www.w3.org/Graphics/SVG/1.1/DTD/svg11.dtd">
<svg version="1.1" xmlns="http://www.w3.org/2000/svg" xmlns:xlink="http://www.w3.org/1999/xlink" x="0px" y="0px" viewBox="0 0 48 48" enable-background="new 0 0 48 48" xml:space="preserve"><g id="Grid" display="none"> <g display="inline">  <line fill="none" stroke="#BABABA" stroke-width="0.25" x1="-695.89" y1="15.531" x2="106" y2="15.531"/>  <line fill="none" stroke="#BABABA" stroke-width="0.25" x1="-695.89" y1="31.62" x2="106" y2="31.62"/>  <line fill="none" stroke="#BABABA" stroke-width="0.25" x1="-695.89" y1="47.708" x2="106" y2="47.708"/>  <line fill="none" stroke="#FF4FFF" stroke-width="0.25" x1="0.016" y1="-81" x2="0.016" y2="514.276"/>  <line fill="none" stroke="#FF4FFF" stroke-width="0.25" x1="48.008" y1="-81" x2="48.008" y2="514.276"/> </g></g><g id="Harmaat_taustat"> <rect fill="#F5F5F5" width="48" height="48"/></g><g id="Ei_mitään" display="none"/><g id="Layer_5" display="none"/><g id="Ikonit">   <radialGradient id="SVGID_1_" cx="23.6082" cy="20.1083" r="18.5458" gradientTransform="matrix(1 0 0 0.6385 0 6.5024)" gradientUnits="userSpaceOnUse">  <stop offset="0" style="stop-color:#FFDE5C"/>  <stop offset="0.2731" style="stop-color:#FFDE5E;stop-opacity:0.7269"/>  <stop offset="0.4301" style="stop-color:#FFE067;stop-opacity:0.5699"/>  <stop offset="0.5577" style="stop-color:#FFE375;stop-opacity:0.4423"/>  <stop offset="0.6695" style="stop-color:#FFE789;stop-opacity:0.3305"/>  <stop offset="0.771" style="stop-color:#FFECA2;stop-opacity:0.229"/>  <stop offset="0.865" style="stop-color:#FFF3C2;stop-opacity:0.135"/>  <stop offset="0.9515" style="stop-color:#FFFAE7;stop-opacity:0.0485"/>  <stop offset="1" style="stop-color:#FFFFFF;stop-opacity:0"/> </radialGradient> <ellipse fill="url(#SVGID_1_)" cx="23.608" cy="19.341" rx="18.546" ry="11.841"/> <path fill="none" stroke="#000000" stroke-linecap="round" stroke-miterlimit="10" d="M23.667,35.167"/> <path fill="#149ECB" stroke="#149ECB" stroke-linecap="round" stroke-miterlimit="10" d="M23.545,31.167  c7.667,0,9.455-1.925,9.455-1.925s-1.288-16.346-1.955-19.18c-0.678-2.881-7.5-2.562-7.5-2.562H24c0,0-6.822-0.318-7.5,2.562  c-0.667,2.833-1.955,19.211-1.955,19.211s1.788,1.909,9.455,1.909"/> <path fill="#06526B" stroke="#06526B" stroke-linecap="round" stroke-miterlimit="10" d="M14.235,30.932c0,0,2.578,1.88,9.765,1.88  c7.187,0,9.359-1.753,9.359-1.753l0.517,4.793c0.076,0.708-0.304,1.391-0.954,1.684c-1.634,0.736-4.968,1.969-8.922,1.929  c-4.125-0.042-7.919-1.373-9.65-2.08c-0.586-0.239-0.928-0.843-0.837-1.469L14.235,30.932z"/> <linearGradient id="SVGID_2_" gradientUnits="userSpaceOnUse" x1="23.7967" y1="10.875" x2="23.7967" y2="7.8125">  <stop offset="0" style="stop-color:#149ECB;stop-opacity:0.5"/>  <stop offset="0.1448" style="stop-color:#189FCC;stop-opacity:0.5724"/>  <stop offset="0.2771" style="stop-color:#23A4CE;stop-opacity:0.6386"/>  <stop offset="0.4046" style="stop-color:#35ACD2;stop-opacity:0.7023"/>  <stop offset="0.5292" style="stop-color:#4FB7D8;stop-opacity:0.7646"/>  <stop offset="0.6516" style="stop-color:#71C4E0;stop-opacity:0.8258"/>  <stop offset="0.7723" style="stop-color:#9BD6E9;stop-opacity:0.8862"/>  <stop offset="0.8895" style="stop-color:#CAE9F3;stop-opacity:0.9447"/>  <stop offset="1" style="stop-color:#FFFFFF"/> </linearGradient> <path opacity="0.45" fill="url(#SVGID_2_)" d="M17.774,9.884c-0.251-0.086-0.306-0.416-0.091-0.571  C18.443,8.767,20.298,7.812,24,7.812c3.74,0,5.335,0.974,5.935,1.518c0.178,0.162,0.13,0.449-0.093,0.54  c-0.816,0.333-2.835,1.004-5.842,1.004C21.033,10.875,18.754,10.222,17.774,9.884z"/> <radialGradient id="SVGID_3_" cx="23.875" cy="20.375" r="7" gradientUnits="userSpaceOnUse">  <stop offset="0" style="stop-color:#FFDE5C"/>  <stop offset="0.2153" style="stop-color:#D1D172"/>  <stop offset="0.7005" style="stop-color:#5EB2A8"/>  <stop offset="1" style="stop-color:#149ECB"/> </radialGradient> <circle fill="url(#SVGID_3_)" cx="23.875" cy="20.375" r="7"/> <linearGradient id="SVGID_4_" gradientUnits="userSpaceOnUse" x1="26.0498" y1="20.702" x2="32.1692" y2="20.702">  <stop offset="0.0034" style="stop-color:#149ECB;stop-opacity:0"/>  <stop offset="0.13" style="stop-color:#2BA7D0;stop-opacity:0.1271"/>  <stop offset="0.3962" style="stop-color:#66C0DD;stop-opacity:0.3941"/>  <stop offset="0.7761" style="stop-color:#C4E7F2;stop-opacity:0.7754"/>  <stop offset="1" style="stop-color:#FFFFFF"/> </linearGradient> <path opacity="0.45" fill="url(#SVGID_4_)" d="M26.767,11.644c0.69-0.054,1.745-0.179,2.729-0.46  c0.468-0.134,0.944,0.174,1.004,0.657l1.66,16.242c0.072,0.576-0.268,1.127-0.813,1.328c-1.526,0.562-2.948,0.764-3.795,0.836  c-0.44,0.038-0.821-0.293-0.848-0.734l-0.652-17.042C26.026,12.046,26.341,11.678,26.767,11.644z"/>   <linearGradient id="SVGID_5_" gradientUnits="userSpaceOnUse" x1="54.6593" y1="20.702" x2="60.7788" y2="20.702" gradientTransform="matrix(-1 0 0 1 76.2191 0)">  <stop offset="0.0034" style="stop-color:#149ECB;stop-opacity:0"/>  <stop offset="0.13" style="stop-color:#2BA7D0;stop-opacity:0.1271"/>  <stop offset="0.3962" style="stop-color:#66C0DD;stop-opacity:0.3941"/>  <stop offset="0.7761" style="stop-color:#C4E7F2;stop-opacity:0.7754"/>  <stop offset="1" style="stop-color:#FFFFFF"/> </linearGradient> <path opacity="0.45" fill="url(#SVGID_5_)" d="M20.843,11.644c-0.69-0.054-1.745-0.179-2.729-0.46  c-0.468-0.134-0.944,0.174-1.004,0.657l-1.66,16.242c-0.072,0.576,0.268,1.127,0.813,1.328c1.526,0.562,2.948,0.764,3.795,0.836  c0.44,0.038,0.821-0.293,0.848-0.734l0.652-17.042C21.584,12.046,21.268,11.678,20.843,11.644z"/> <linearGradient id="SVGID_6_" gradientUnits="userSpaceOnUse" x1="13.5157" y1="35.1013" x2="28.9914" y2="35.3715">  <stop offset="0.2719" style="stop-color:#FFFFFF;stop-opacity:0"/>  <stop offset="0.365" style="stop-color:#D1DFE4;stop-opacity:0.2039"/>  <stop offset="0.5747" style="stop-color:#5E8F9F;stop-opacity:0.6632"/>  <stop offset="0.7285" style="stop-color:#06526B"/> </linearGradient> <path fill="url(#SVGID_6_)" d="M28.93,38.892c-1.445,0.344-3.123,0.592-4.93,0.573c-1.214-0.012-2.4-0.137-3.513-0.324  c-2.667-0.448-4.915-1.257-6.137-1.756c-0.586-0.239-0.928-0.843-0.837-1.469l0.722-4.985c0,0,1.804,1.316,6.601,1.746  c0.937,0.084,1.989,0.134,3.164,0.134c1.662,0,3.056-0.094,4.217-0.238"/> <linearGradient id="SVGID_7_" gradientUnits="userSpaceOnUse" x1="23.7864" y1="11.4475" x2="23.7864" y2="7.8098">  <stop offset="0" style="stop-color:#FFFFFF;stop-opacity:0.6"/>  <stop offset="1" style="stop-color:#149ECB;stop-opacity:0"/> </linearGradient> <path opacity="0.45" fill="url(#SVGID_7_)" d="M17.65,10.271c-0.256-0.103-0.312-0.494-0.093-0.678  c0.774-0.65,2.664-1.783,6.436-1.783c3.811,0,5.436,1.157,6.047,1.803c0.182,0.192,0.132,0.534-0.095,0.642  c-0.832,0.396-2.888,1.193-5.952,1.193C20.97,11.447,18.648,10.671,17.65,10.271z"/></g></svg>