<?xml version="1.0" encoding="windows-1252"?>
<!DOCTYPE svg PUBLIC "-//W3C//DTD SVG 1.1//EN" "http://www.w3.org/Graphics/SVG/1.1/DTD/svg11.dtd">
<svg version="1.1" xmlns="http://www.w3.org/2000/svg" xmlns:xlink="http://www.w3.org/1999/xlink" x="0px" y="0px" viewBox="0 0 48 48" enable-background="new 0 0 48 48" xml:space="preserve"><g id="Grid" display="none"> <g display="inline">  <line fill="none" stroke="#BABABA" stroke-width="0.25" x1="0.11" y1="15.531" x2="802" y2="15.531"/>  <line fill="none" stroke="#BABABA" stroke-width="0.25" x1="0.11" y1="31.62" x2="802" y2="31.62"/>  <line fill="none" stroke="#BABABA" stroke-width="0.25" x1="0.11" y1="47.708" x2="802" y2="47.708"/>  <line fill="none" stroke="#FF4FFF" stroke-width="0.25" x1="48.102" y1="-81" x2="48.102" y2="514.276"/>  <line fill="none" stroke="#FF4FFF" stroke-width="0.25" x1="0.11" y1="-81" x2="0.11" y2="514.276"/> </g></g><g id="Harmaat_taustat"> <rect fill="#F5F5F5" width="48" height="48"/></g><g id="Ei_mitään" display="none"/><g id="Layer_5" display="none"/><g id="Ikonit"> <g>  <rect x="6" y="14" fill="#062B38" width="36" height="23"/>  <rect x="6" y="14" fill="#0F7395" width="4" height="23"/>  <rect x="16" y="14" fill="#0F7395" width="4" height="23"/>  <rect x="28" y="14" fill="#0F7395" width="4" height="23"/>  <rect x="38" y="14" fill="#0F7395" width="4" height="23"/>  <rect x="8" y="14" opacity="0.3" width="2" height="23"/>  <rect x="9" y="14" opacity="0.3" width="1" height="23"/>  <rect x="18" y="14" opacity="0.3" width="2" height="23"/>  <rect x="19" y="14" opacity="0.3" width="1" height="23"/>  <rect x="30" y="14" opacity="0.3" width="2" height="23"/>  <rect x="31" y="14" opacity="0.3" width="1" height="23"/>  <rect x="40" y="14" opacity="0.3" width="2" height="23"/>  <rect x="41" y="14" opacity="0.3" width="1" height="23"/>  <rect x="5" y="37" fill="#0F7395" width="38" height="4"/>  <rect x="5" y="39" opacity="0.5" width="38" height="2"/>  <rect x="6" y="14" opacity="0.3" fill="#FFFFFF" width="1" height="23"/>  <rect x="16" y="14" opacity="0.2" fill="#FFFFFF" width="1" height="23"/>  <rect x="28" y="14" opacity="0.2" fill="#FFFFFF" width="1" height="23"/>  <rect x="38" y="14" opacity="0.2" fill="#FFFFFF" width="1" height="23"/>  <rect x="6" y="17.891" opacity="0.37" width="4" height="1"/>  <rect x="16" y="17.891" opacity="0.37" width="4" height="1"/>  <rect x="28" y="17.891" opacity="0.37" width="4" height="1"/>  <rect x="38" y="17.891" opacity="0.37" width="4" height="1"/>  <rect x="3" y="41" fill="#0F7395" width="42" height="4"/>  <rect x="3" y="43" opacity="0.5" width="42" height="2"/>  <rect x="21" y="25" opacity="0.7" fill="#020E13" width="6" height="12"/>  <g>   <path fill="#0B566F" stroke="#0F7395" stroke-width="2.8286" stroke-miterlimit="10" d="M4.07,15.393L24.026,4.562    c0.145-0.079,0.314-0.077,0.457,0.004l19.043,10.766c0.516,0.292,0.332,1.168-0.246,1.168H4.295    C3.745,16.5,3.574,15.662,4.07,15.393z"/>   <polygon opacity="0.37" points="7.672,15.078 24.219,6.078 26.542,7.305 13.125,15    "/>  </g> </g></g></svg>